<?xml version="1.0" standalone="no"?><!DOCTYPE svg PUBLIC "-//W3C//DTD SVG 1.1//EN" "http://www.w3.org/Graphics/SVG/1.1/DTD/svg11.dtd"><svg t="1532674412976" class="icon" style="" viewBox="0 0 1024 1024" version="1.1" xmlns="http://www.w3.org/2000/svg" p-id="856" xmlns:xlink="http://www.w3.org/1999/xlink" width="64" height="64"><defs><style type="text/css"></style></defs><path d="M511.1 957.94c-246.456 0-446.857-200.401-446.857-446.859S264.644 64.223 511.1 64.223c246.457 0 446.858 200.401 446.858 446.858S757.557 957.94 511.1 957.94z m0-851.396c-222.806 0-404.537 181.73-404.537 404.537S288.295 915.619 511.1 915.619c222.807 0 404.537-181.73 404.537-404.537S734.53 106.544 511.1 106.544z m167.417 262.017L447.619 601.325 343.685 496.767c-9.335-9.335-24.895-9.335-34.853 0-9.335 9.335-9.335 24.895 0 34.853l121.984 121.983c9.336 9.336 24.895 9.336 34.853 0 1.244-1.244 1.866-2.489 3.112-3.733l245.211-246.457c9.336-9.335 9.336-24.895 0-34.852-9.959-9.959-25.518-9.959-35.475 0z" p-id="857" fill="#ffffff"></path></svg>